<mxfile host="Electron" modified="2023-04-24T18:35:09.161Z" agent="Mozilla/5.0 (Windows NT 10.0; Win64; x64) AppleWebKit/537.36 (KHTML, like Gecko) draw.io/21.1.2 Chrome/106.0.5249.199 Electron/21.4.3 Safari/537.36" etag="ocBCmvSyHg7dxX6TlFHb" version="21.1.2" type="device">
  <diagram name="Seite-1" id="mXc9eJjy48PCdcYGGqnQ">
    <mxGraphModel dx="792" dy="2356" grid="1" gridSize="10" guides="1" tooltips="1" connect="1" arrows="1" fold="1" page="1" pageScale="1" pageWidth="827" pageHeight="1169" math="0" shadow="0">
      <root>
        <mxCell id="0" />
        <mxCell id="1" parent="0" />
        <mxCell id="dW_r33bw40_CPsYAS7l7-1" value="Rolle" style="shape=actor;whiteSpace=wrap;html=1;labelPosition=center;verticalLabelPosition=bottom;align=center;verticalAlign=top;" parent="1" vertex="1">
          <mxGeometry x="300" y="620" width="40" height="60" as="geometry" />
        </mxCell>
        <mxCell id="dW_r33bw40_CPsYAS7l7-2" value="Alice" style="shape=actor;whiteSpace=wrap;html=1;labelPosition=center;verticalLabelPosition=bottom;align=center;verticalAlign=top;" parent="1" vertex="1">
          <mxGeometry x="90" y="475" width="40" height="60" as="geometry" />
        </mxCell>
        <mxCell id="dW_r33bw40_CPsYAS7l7-3" value="Bob" style="shape=actor;whiteSpace=wrap;html=1;labelPosition=center;verticalLabelPosition=bottom;align=center;verticalAlign=top;" parent="1" vertex="1">
          <mxGeometry x="90" y="770" width="40" height="60" as="geometry" />
        </mxCell>
        <mxCell id="dW_r33bw40_CPsYAS7l7-5" value="Eve" style="shape=actor;whiteSpace=wrap;html=1;labelPosition=center;verticalLabelPosition=bottom;align=center;verticalAlign=top;" parent="1" vertex="1">
          <mxGeometry x="90" y="620" width="40" height="60" as="geometry" />
        </mxCell>
        <mxCell id="dW_r33bw40_CPsYAS7l7-13" value="" style="rounded=0;whiteSpace=wrap;html=1;" parent="1" vertex="1">
          <mxGeometry x="400" y="-30" width="320" height="900" as="geometry" />
        </mxCell>
        <mxCell id="dW_r33bw40_CPsYAS7l7-14" value="QuaKrypto" style="text;html=1;strokeColor=none;fillColor=none;align=center;verticalAlign=middle;whiteSpace=wrap;rounded=0;" parent="1" vertex="1">
          <mxGeometry x="410" y="-30" width="60" height="30" as="geometry" />
        </mxCell>
        <mxCell id="dW_r33bw40_CPsYAS7l7-15" value="Einsicht in einen Wiki-Eintrag" style="ellipse;whiteSpace=wrap;html=1;" parent="1" vertex="1">
          <mxGeometry x="450" y="240" width="220" height="50" as="geometry" />
        </mxCell>
        <mxCell id="dW_r33bw40_CPsYAS7l7-16" value="Bearbeitung des Wikis" style="ellipse;whiteSpace=wrap;html=1;" parent="1" vertex="1">
          <mxGeometry x="450" y="300" width="220" height="50" as="geometry" />
        </mxCell>
        <mxCell id="dW_r33bw40_CPsYAS7l7-17" value="Nachricht senden" style="ellipse;whiteSpace=wrap;html=1;" parent="1" vertex="1">
          <mxGeometry x="450" y="420" width="220" height="50" as="geometry" />
        </mxCell>
        <mxCell id="dW_r33bw40_CPsYAS7l7-19" style="edgeStyle=orthogonalEdgeStyle;rounded=0;orthogonalLoop=1;jettySize=auto;html=1;exitX=0.5;exitY=1;exitDx=0;exitDy=0;entryX=0.5;entryY=0;entryDx=0;entryDy=0;" parent="1" source="dW_r33bw40_CPsYAS7l7-18" target="dW_r33bw40_CPsYAS7l7-1" edge="1">
          <mxGeometry relative="1" as="geometry" />
        </mxCell>
        <mxCell id="dW_r33bw40_CPsYAS7l7-21" value="nimmt ein" style="edgeLabel;html=1;align=center;verticalAlign=middle;resizable=0;points=[];" parent="dW_r33bw40_CPsYAS7l7-19" vertex="1" connectable="0">
          <mxGeometry x="-0.3421" y="3" relative="1" as="geometry">
            <mxPoint x="-3" y="36" as="offset" />
          </mxGeometry>
        </mxCell>
        <mxCell id="dW_r33bw40_CPsYAS7l7-27" style="rounded=0;orthogonalLoop=1;jettySize=auto;html=1;exitX=1;exitY=0.75;exitDx=0;exitDy=0;entryX=0;entryY=0.5;entryDx=0;entryDy=0;endArrow=none;endFill=0;" parent="1" source="dW_r33bw40_CPsYAS7l7-18" target="dW_r33bw40_CPsYAS7l7-15" edge="1">
          <mxGeometry relative="1" as="geometry" />
        </mxCell>
        <mxCell id="dW_r33bw40_CPsYAS7l7-28" style="rounded=0;orthogonalLoop=1;jettySize=auto;html=1;exitX=1;exitY=0.75;exitDx=0;exitDy=0;entryX=0;entryY=0.5;entryDx=0;entryDy=0;endArrow=none;endFill=0;" parent="1" source="dW_r33bw40_CPsYAS7l7-18" target="dW_r33bw40_CPsYAS7l7-16" edge="1">
          <mxGeometry relative="1" as="geometry" />
        </mxCell>
        <mxCell id="dW_r33bw40_CPsYAS7l7-18" value="Benutzergruppe" style="shape=actor;whiteSpace=wrap;html=1;labelPosition=center;verticalLabelPosition=top;align=center;verticalAlign=bottom;" parent="1" vertex="1">
          <mxGeometry x="300" y="210" width="40" height="60" as="geometry" />
        </mxCell>
        <mxCell id="dW_r33bw40_CPsYAS7l7-20" value="Nachricht empfangen" style="ellipse;whiteSpace=wrap;html=1;" parent="1" vertex="1">
          <mxGeometry x="450" y="485" width="220" height="50" as="geometry" />
        </mxCell>
        <mxCell id="dW_r33bw40_CPsYAS7l7-22" value="Anzeigen der Aufzeichnung" style="ellipse;whiteSpace=wrap;html=1;" parent="1" vertex="1">
          <mxGeometry x="450" y="360" width="220" height="50" as="geometry" />
        </mxCell>
        <mxCell id="dW_r33bw40_CPsYAS7l7-23" value="Beitritt zu einer lokalen Lobby" style="ellipse;whiteSpace=wrap;html=1;" parent="1" vertex="1">
          <mxGeometry x="450" y="60" width="220" height="50" as="geometry" />
        </mxCell>
        <mxCell id="dW_r33bw40_CPsYAS7l7-24" value="Erstellen einer Lobby" style="ellipse;whiteSpace=wrap;html=1;" parent="1" vertex="1">
          <mxGeometry x="450" width="220" height="50" as="geometry" />
        </mxCell>
        <mxCell id="dW_r33bw40_CPsYAS7l7-25" value="Generierung einer Information" style="ellipse;whiteSpace=wrap;html=1;" parent="1" vertex="1">
          <mxGeometry x="450" y="610" width="220" height="50" as="geometry" />
        </mxCell>
        <mxCell id="dW_r33bw40_CPsYAS7l7-26" value="Nachricht abhÃ¶ren" style="ellipse;whiteSpace=wrap;html=1;" parent="1" vertex="1">
          <mxGeometry x="450" y="550" width="220" height="50" as="geometry" />
        </mxCell>
        <mxCell id="dW_r33bw40_CPsYAS7l7-29" style="rounded=0;orthogonalLoop=1;jettySize=auto;html=1;exitX=1;exitY=0.75;exitDx=0;exitDy=0;entryX=0;entryY=0.5;entryDx=0;entryDy=0;endArrow=none;endFill=0;" parent="1" source="dW_r33bw40_CPsYAS7l7-18" target="dW_r33bw40_CPsYAS7l7-22" edge="1">
          <mxGeometry relative="1" as="geometry">
            <mxPoint x="346" y="260" as="sourcePoint" />
            <mxPoint x="460" y="205" as="targetPoint" />
          </mxGeometry>
        </mxCell>
        <mxCell id="dW_r33bw40_CPsYAS7l7-30" style="rounded=0;orthogonalLoop=1;jettySize=auto;html=1;exitX=1;exitY=0.75;exitDx=0;exitDy=0;entryX=0;entryY=0.5;entryDx=0;entryDy=0;endArrow=none;endFill=0;" parent="1" source="dW_r33bw40_CPsYAS7l7-18" target="dW_r33bw40_CPsYAS7l7-23" edge="1">
          <mxGeometry relative="1" as="geometry">
            <mxPoint x="356" y="270" as="sourcePoint" />
            <mxPoint x="470" y="215" as="targetPoint" />
          </mxGeometry>
        </mxCell>
        <mxCell id="dW_r33bw40_CPsYAS7l7-32" style="rounded=0;orthogonalLoop=1;jettySize=auto;html=1;exitX=1;exitY=0.75;exitDx=0;exitDy=0;entryX=0;entryY=0.5;entryDx=0;entryDy=0;endArrow=none;endFill=0;" parent="1" source="dW_r33bw40_CPsYAS7l7-18" target="dW_r33bw40_CPsYAS7l7-24" edge="1">
          <mxGeometry relative="1" as="geometry">
            <mxPoint x="366" y="280" as="sourcePoint" />
            <mxPoint x="480" y="225" as="targetPoint" />
          </mxGeometry>
        </mxCell>
        <mxCell id="dW_r33bw40_CPsYAS7l7-33" style="rounded=0;orthogonalLoop=1;jettySize=auto;html=1;exitX=1;exitY=0.75;exitDx=0;exitDy=0;entryX=0;entryY=0.5;entryDx=0;entryDy=0;endArrow=none;endFill=0;" parent="1" source="dW_r33bw40_CPsYAS7l7-1" target="dW_r33bw40_CPsYAS7l7-17" edge="1">
          <mxGeometry relative="1" as="geometry">
            <mxPoint x="376" y="290" as="sourcePoint" />
            <mxPoint x="490" y="235" as="targetPoint" />
          </mxGeometry>
        </mxCell>
        <mxCell id="dW_r33bw40_CPsYAS7l7-34" style="rounded=0;orthogonalLoop=1;jettySize=auto;html=1;exitX=1;exitY=0.75;exitDx=0;exitDy=0;entryX=0;entryY=0.5;entryDx=0;entryDy=0;endArrow=none;endFill=0;" parent="1" source="dW_r33bw40_CPsYAS7l7-1" target="dW_r33bw40_CPsYAS7l7-20" edge="1">
          <mxGeometry relative="1" as="geometry">
            <mxPoint x="386" y="300" as="sourcePoint" />
            <mxPoint x="500" y="245" as="targetPoint" />
          </mxGeometry>
        </mxCell>
        <mxCell id="dW_r33bw40_CPsYAS7l7-35" style="rounded=0;orthogonalLoop=1;jettySize=auto;html=1;exitX=1;exitY=0.75;exitDx=0;exitDy=0;endArrow=none;endFill=0;entryX=0;entryY=0.5;entryDx=0;entryDy=0;" parent="1" source="dW_r33bw40_CPsYAS7l7-1" target="dW_r33bw40_CPsYAS7l7-25" edge="1">
          <mxGeometry relative="1" as="geometry">
            <mxPoint x="396" y="310" as="sourcePoint" />
            <mxPoint x="440" y="490" as="targetPoint" />
          </mxGeometry>
        </mxCell>
        <mxCell id="dW_r33bw40_CPsYAS7l7-36" style="rounded=0;orthogonalLoop=1;jettySize=auto;html=1;exitX=1;exitY=0.75;exitDx=0;exitDy=0;entryX=0;entryY=0.5;entryDx=0;entryDy=0;endArrow=none;endFill=0;" parent="1" source="dW_r33bw40_CPsYAS7l7-1" target="dW_r33bw40_CPsYAS7l7-26" edge="1">
          <mxGeometry relative="1" as="geometry">
            <mxPoint x="406" y="320" as="sourcePoint" />
            <mxPoint x="520" y="265" as="targetPoint" />
          </mxGeometry>
        </mxCell>
        <mxCell id="sIxDRcOi3wGC3ukwzBUY-1" value="Beitritt zu einer netzwerkbasierten&lt;br&gt;Lobby" style="ellipse;whiteSpace=wrap;html=1;" parent="1" vertex="1">
          <mxGeometry x="450" y="120" width="220" height="50" as="geometry" />
        </mxCell>
        <mxCell id="sIxDRcOi3wGC3ukwzBUY-2" value="" style="endArrow=none;html=1;rounded=0;exitX=1;exitY=0.75;exitDx=0;exitDy=0;entryX=0;entryY=0.5;entryDx=0;entryDy=0;" parent="1" source="dW_r33bw40_CPsYAS7l7-18" target="sIxDRcOi3wGC3ukwzBUY-1" edge="1">
          <mxGeometry width="50" height="50" relative="1" as="geometry">
            <mxPoint x="430" y="440" as="sourcePoint" />
            <mxPoint x="480" y="390" as="targetPoint" />
          </mxGeometry>
        </mxCell>
        <mxCell id="sIxDRcOi3wGC3ukwzBUY-3" value="Bearbeitung eines Ãbungsszenarios" style="ellipse;whiteSpace=wrap;html=1;" parent="1" vertex="1">
          <mxGeometry x="450" y="180" width="220" height="50" as="geometry" />
        </mxCell>
        <mxCell id="sIxDRcOi3wGC3ukwzBUY-4" value="" style="endArrow=none;html=1;rounded=0;exitX=1;exitY=0.75;exitDx=0;exitDy=0;entryX=0;entryY=0.5;entryDx=0;entryDy=0;" parent="1" source="dW_r33bw40_CPsYAS7l7-18" target="sIxDRcOi3wGC3ukwzBUY-3" edge="1">
          <mxGeometry width="50" height="50" relative="1" as="geometry">
            <mxPoint x="350" y="265" as="sourcePoint" />
            <mxPoint x="460" y="265" as="targetPoint" />
          </mxGeometry>
        </mxCell>
        <mxCell id="U1puEjJb969GvMGmky_u-2" value="Vergleich von Informationen" style="ellipse;whiteSpace=wrap;html=1;" parent="1" vertex="1">
          <mxGeometry x="450" y="670" width="220" height="50" as="geometry" />
        </mxCell>
        <mxCell id="U1puEjJb969GvMGmky_u-3" value="Umwandlung von Informationen" style="ellipse;whiteSpace=wrap;html=1;" parent="1" vertex="1">
          <mxGeometry x="450" y="730" width="220" height="50" as="geometry" />
        </mxCell>
        <mxCell id="U1puEjJb969GvMGmky_u-4" value="VerÃ¤nderung von Informationen" style="ellipse;whiteSpace=wrap;html=1;" parent="1" vertex="1">
          <mxGeometry x="450" y="790" width="220" height="50" as="geometry" />
        </mxCell>
        <mxCell id="U1puEjJb969GvMGmky_u-5" value="" style="endArrow=none;html=1;rounded=0;exitX=1;exitY=0.75;exitDx=0;exitDy=0;entryX=0;entryY=0.5;entryDx=0;entryDy=0;" parent="1" source="dW_r33bw40_CPsYAS7l7-1" target="U1puEjJb969GvMGmky_u-2" edge="1">
          <mxGeometry width="50" height="50" relative="1" as="geometry">
            <mxPoint x="390" y="800" as="sourcePoint" />
            <mxPoint x="440" y="750" as="targetPoint" />
          </mxGeometry>
        </mxCell>
        <mxCell id="U1puEjJb969GvMGmky_u-6" value="" style="endArrow=none;html=1;rounded=0;exitX=1;exitY=0.75;exitDx=0;exitDy=0;entryX=0;entryY=0.5;entryDx=0;entryDy=0;" parent="1" source="dW_r33bw40_CPsYAS7l7-1" target="U1puEjJb969GvMGmky_u-3" edge="1">
          <mxGeometry width="50" height="50" relative="1" as="geometry">
            <mxPoint x="390" y="800" as="sourcePoint" />
            <mxPoint x="440" y="750" as="targetPoint" />
          </mxGeometry>
        </mxCell>
        <mxCell id="U1puEjJb969GvMGmky_u-7" value="" style="endArrow=none;html=1;rounded=0;exitX=1;exitY=0.75;exitDx=0;exitDy=0;entryX=0;entryY=0.5;entryDx=0;entryDy=0;" parent="1" source="dW_r33bw40_CPsYAS7l7-1" target="U1puEjJb969GvMGmky_u-4" edge="1">
          <mxGeometry width="50" height="50" relative="1" as="geometry">
            <mxPoint x="390" y="800" as="sourcePoint" />
            <mxPoint x="440" y="750" as="targetPoint" />
          </mxGeometry>
        </mxCell>
        <mxCell id="U1puEjJb969GvMGmky_u-8" value="" style="endArrow=block;html=1;rounded=0;exitX=1;exitY=0.75;exitDx=0;exitDy=0;entryX=0;entryY=0.75;entryDx=0;entryDy=0;endFill=0;" parent="1" source="dW_r33bw40_CPsYAS7l7-3" target="dW_r33bw40_CPsYAS7l7-1" edge="1">
          <mxGeometry width="50" height="50" relative="1" as="geometry">
            <mxPoint x="390" y="800" as="sourcePoint" />
            <mxPoint x="440" y="750" as="targetPoint" />
          </mxGeometry>
        </mxCell>
        <mxCell id="U1puEjJb969GvMGmky_u-9" value="" style="endArrow=block;html=1;rounded=0;exitX=1;exitY=0.75;exitDx=0;exitDy=0;entryX=0;entryY=0.75;entryDx=0;entryDy=0;endFill=0;" parent="1" source="dW_r33bw40_CPsYAS7l7-5" target="dW_r33bw40_CPsYAS7l7-1" edge="1">
          <mxGeometry width="50" height="50" relative="1" as="geometry">
            <mxPoint x="140" y="825" as="sourcePoint" />
            <mxPoint x="310" y="675" as="targetPoint" />
          </mxGeometry>
        </mxCell>
        <mxCell id="U1puEjJb969GvMGmky_u-10" value="" style="endArrow=block;html=1;rounded=0;exitX=1;exitY=0.75;exitDx=0;exitDy=0;entryX=0;entryY=0.75;entryDx=0;entryDy=0;endFill=0;" parent="1" source="dW_r33bw40_CPsYAS7l7-2" target="dW_r33bw40_CPsYAS7l7-1" edge="1">
          <mxGeometry width="50" height="50" relative="1" as="geometry">
            <mxPoint x="140" y="675" as="sourcePoint" />
            <mxPoint x="310" y="675" as="targetPoint" />
          </mxGeometry>
        </mxCell>
      </root>
    </mxGraphModel>
  </diagram>
</mxfile>
